<?xml version="1.0" encoding="UTF-8" standalone="no"?>
<svg
   xmlns:x="adobe:ns:meta/"
   xmlns:dc="http://purl.org/dc/elements/1.1/"
   xmlns:cc="http://creativecommons.org/ns#"
   xmlns:rdf="http://www.w3.org/1999/02/22-rdf-syntax-ns#"
   xmlns:svg="http://www.w3.org/2000/svg"
   xmlns="http://www.w3.org/2000/svg"
   xmlns:sodipodi="http://sodipodi.sourceforge.net/DTD/sodipodi-0.dtd"
   xmlns:inkscape="http://www.inkscape.org/namespaces/inkscape"
   width="304.03201"
   height="76.825996"
   viewBox="0 0 152.01601 38.412998"
   version="1.1"
   id="svg9"
   sodipodi:docname="milestone-logo.svg"
   inkscape:version="0.92.4 (5da689c313, 2019-01-14)"
   inkscape:export-filename="C:\Git\infoserv-riga\IsrLp\src\assets\img\distribution\logo\milestone-logo.png"
   inkscape:export-xdpi="96"
   inkscape:export-ydpi="96">
  <sodipodi:namedview
     pagecolor="#ffffff"
     bordercolor="#666666"
     borderopacity="1"
     objecttolerance="10"
     gridtolerance="10"
     guidetolerance="10"
     inkscape:pageopacity="0"
     inkscape:pageshadow="2"
     inkscape:window-width="1920"
     inkscape:window-height="1027"
     id="namedview11"
     showgrid="false"
     fit-margin-top="10"
     fit-margin-bottom="10"
     fit-margin-left="10"
     fit-margin-right="10"
     inkscape:zoom="0.99300699"
     inkscape:cx="151.582"
     inkscape:cy="38.072"
     inkscape:window-x="1912"
     inkscape:window-y="-8"
     inkscape:window-maximized="1"
     inkscape:current-layer="svg9" />
  <metadata
     id="metadata2">
<?xpacket begin="ÿ" id="W5M0MpCehiHzreSzNTczkc9d"?>    <x:xmpmeta
       x:xmptk="Adobe XMP Core 5.6-c138 79.159824, 2016/09/14-01:09:01        ">
      <metadata>
        <rdf:RDF>
          <rdf:Description
             rdf:about="" />
          <cc:Work
             rdf:about="">
            <dc:format>image/svg+xml</dc:format>
            <dc:type
               rdf:resource="http://purl.org/dc/dcmitype/StillImage" />
            <dc:title></dc:title>
          </cc:Work>
        </rdf:RDF>
      </metadata>
    </x:xmpmeta>
<?xpacket end="w"?>  </metadata>
  <defs
     id="defs6">
    <style
       id="style4">
      .cls-1 {
        fill: #0099da;
        fill-rule: evenodd;
      }
    </style>
  </defs>
  <path
     id="logo_new_copy_2"
     data-name="logo_new copy 2"
     class="cls-1"
     d="m 70.14,25.53 h 3.166 V 9.113 l -3.166,2.979 z m -7.025,0 h 3.166 V 13.912 h -3.166 z m 0,-13.469 h 3.166 V 9.177 h -3.165 v 2.885 z m -7.116,1.5 a 4.575,4.575 0 0 0 -4.14,2.26 3.248,3.248 0 0 0 -3.357,-2.26 4.658,4.658 0 0 0 -4.04,2.3 h -0.046 c 0,-0.587 0,-1.985 0,-1.985 h -2.825 v 11.66 h 3.082 v -5.908 c 0,-2.143 1.188,-3.692 2.614,-3.692 1.265,0 2.016,1.1 2.016,2.542 v 7.058 h 2.935 v -5.795 c 0,-2.346 1.1,-3.805 2.568,-3.805 1.311,0 2.063,1.1 2.063,3.106 v 6.493 h 3.1 v -6.809 c 0.002,-2.865 -1.026,-5.163 -3.97,-5.163 z m 58.37,0 c -3.8,0 -6.409,2.388 -6.409,6.133 a 6.318,6.318 0 0 0 12.634,0.023 5.911,5.911 0 0 0 -6.225,-6.151 z m -0.115,10.116 c -1.878,-0.008 -3,-1.674 -3,-3.952 0,-2.482 1.188,-4 3.028,-4 1.863,0 3.074,1.5 3.074,3.892 0,2.392 -1.174,4.06 -3.102,4.06 z m 15.143,-10.119 a 4.215,4.215 0 0 0 -3.838,2.079 h -0.046 v -1.793 l -3.077,-0.016 v 11.7 h 3.036 v -5.251 a 5.88,5.88 0 0 1 0.506,-2.707 3,3 0 0 1 2.5,-1.595 c 2.024,0 2.224,1.73 2.224,3.963 v 5.595 h 3.035 v -6.771 c -0.001,-3.113 -1.189,-5.204 -4.34,-5.204 z m -23.964,9.754 c -1.495,0 -1.924,-0.872 -1.924,-2.632 v -4.452 h 3 V 13.87 h -3 v -4.7 l -2.9,2.752 v 1.948 h -2.318 v 2.358 h 2.277 v 5.061 c 0,3.068 1.235,4.459 3.948,4.459 a 7.2,7.2 0 0 0 2.2,-0.293 l -0.069,-2.324 a 4.359,4.359 0 0 1 -1.214,0.181 z m 41.583,-3.467 c 0,-4.2 -1.855,-6.287 -5.282,-6.287 a 5.843,5.843 0 0 0 -6.018,6.106 c 0,3.9 2.638,6.219 6.524,6.219 a 9.732,9.732 0 0 0 3.948,-0.767 l -0.046,-2.482 a 6.762,6.762 0 0 1 -3.534,0.948 c -2.139,0 -3.695,-1.317 -3.741,-3.1 h 8.1 a 5.568,5.568 0 0 0 0.049,-0.637 z m -8.195,-1.268 c 0.178,-2.056 1.441,-2.873 2.8,-2.873 1.518,0 2.568,0.771 2.568,2.873 z m -51.924,1.27 c 0,-4.2 -1.855,-6.287 -5.282,-6.287 a 5.843,5.843 0 0 0 -6.018,6.106 c 0,3.9 2.638,6.219 6.524,6.219 a 9.734,9.734 0 0 0 3.948,-0.767 l -0.046,-2.482 a 6.763,6.763 0 0 1 -3.534,0.948 c -2.139,0 -3.7,-1.317 -3.741,-3.1 h 8.1 a 5.545,5.545 0 0 0 0.049,-0.639 z m -8.2,-1.27 c 0.178,-2.056 1.442,-2.873 2.8,-2.873 1.518,0 2.568,0.771 2.568,2.873 h -5.363 z m 15.206,0.071 c -1.679,-0.542 -2.247,-0.9 -2.247,-1.685 0,-0.785 0.844,-1.3 1.879,-1.3 a 6.647,6.647 0 0 1 2.756,0.619 v -2.336 a 8.989,8.989 0 0 0 -2.885,-0.429 c -2.829,0 -4.776,1.437 -4.776,3.648 0,1.714 1.066,2.511 3.32,3.278 1.886,0.654 2.323,1.053 2.323,1.866 0,0.834 -0.981,1.324 -2.016,1.324 a 8.053,8.053 0 0 1 -3.281,-0.747 v 2.429 a 10.816,10.816 0 0 0 3.442,0.529 c 2.875,0 4.937,-1.391 4.937,-3.783 C 97.35,20.077 96,19.323 93.908,18.646 Z M 19.483,33.413 5,19.207 19.483,5 33.965,19.207 Z"
     inkscape:connector-curvature="0"
     style="fill:#0099da;fill-rule:evenodd" />
</svg>
