<?xml version="1.0" encoding="UTF-8" standalone="no"?>
<svg
   xmlns:dc="http://purl.org/dc/elements/1.1/"
   xmlns:cc="http://creativecommons.org/ns#"
   xmlns:rdf="http://www.w3.org/1999/02/22-rdf-syntax-ns#"
   xmlns:svg="http://www.w3.org/2000/svg"
   xmlns="http://www.w3.org/2000/svg"
   xmlns:sodipodi="http://sodipodi.sourceforge.net/DTD/sodipodi-0.dtd"
   xmlns:inkscape="http://www.inkscape.org/namespaces/inkscape"
   id="Layer_1"
   data-name="Layer 1"
   viewBox="0 0 259.99998 120"
   version="1.1"
   sodipodi:docname="onespan.svg"
   width="260"
   height="120"
   inkscape:version="0.92.4 (5da689c313, 2019-01-14)">
  <metadata
     id="metadata31">
    <rdf:RDF>
      <cc:Work
         rdf:about="">
        <dc:format>image/svg+xml</dc:format>
        <dc:type
           rdf:resource="http://purl.org/dc/dcmitype/StillImage" />
        <dc:title>Logo-Export</dc:title>
      </cc:Work>
    </rdf:RDF>
  </metadata>
  <defs
     id="defs29" />
  <sodipodi:namedview
     pagecolor="#ffffff"
     bordercolor="#666666"
     borderopacity="1"
     objecttolerance="10"
     gridtolerance="10"
     guidetolerance="10"
     inkscape:pageopacity="0"
     inkscape:pageshadow="2"
     inkscape:window-width="1920"
     inkscape:window-height="1027"
     id="namedview27"
     showgrid="false"
     fit-margin-left="7"
     fit-margin-right="7"
     fit-margin-bottom="10"
     fit-margin-top="10"
     inkscape:zoom="1.0125499"
     inkscape:cx="147.24004"
     inkscape:cy="-5.7339116"
     inkscape:window-x="1912"
     inkscape:window-y="-8"
     inkscape:window-maximized="1"
     inkscape:current-layer="Layer_1" />
  <title
     id="title2">Logo-Export</title>
  <path
     d="m 52.627095,64.225453 c 0,0 -10.406785,-18.695454 -10.503064,-18.993041 C 42.027751,44.934824 27.13966,42.606645 27.13966,42.606645 l -9.155171,9.575294 -2.135623,6.415621 -0.525153,2.039346 -6.1267875,-1.102821 8.9363565,-17.898972 13.312634,-5.251532 14.555496,6.039261 6.126788,8.752553 1.899305,6.328097 0.350102,4.157462 v 1.531697 z"
     id="path4"
     inkscape:connector-curvature="0"
     style="fill:#968bff;stroke-width:0.87525541" />
  <polygon
     points="25.77,56.41 35.69,55.42 46.89,46.38 46.45,32.53 45.06,29.92 44.33,29.87 44.34,34.02 43.51,39.56 40.18,47.05 29.93,51.31 18.51,48.93 9.64,42.11 3.88,36.68 1.88,29.98 0,25.38 0.5,37.24 9.03,51.87 "
     id="polygon6"
     transform="matrix(0.87525536,0,0,0.87525536,7.0000344,31.841005)"
     style="fill:#968bff" />
  <path
     d="M 54.053762,59.560341 A 23.728173,23.728173 0 0 0 30.710702,39.893355 15.623309,15.623309 0 0 0 15.069889,55.472899 15.754597,15.754597 0 0 0 15.595042,59.569094 15.623309,15.623309 0 1 1 30.710702,79.20107 23.710667,23.710667 0 0 1 7.0000344,55.472899 v 8.078607 A 23.693163,23.693163 0 1 0 54.036257,59.534085 Z"
     id="path8"
     inkscape:connector-curvature="0"
     style="fill:#5940c3;stroke-width:0.87525541" />
  <path
     d="m 91.558455,66.95625 a 10.179219,10.179219 0 0 1 -14.380446,0.498896 6.704456,6.704456 0 0 1 -0.498896,-0.498896 10.905682,10.905682 0 0 1 -3.010879,-7.483434 10.564333,10.564333 0 0 1 3.010879,-7.500939 10.424291,10.424291 0 0 1 14.748054,-0.131288 l 0.131288,0.131288 a 10.634352,10.634352 0 0 1 2.967115,7.500939 10.984455,10.984455 0 0 1 -3.010878,7.483434 M 84.136289,44.392167 a 15.255701,15.255701 0 0 0 -10.783146,4.437545 14.879341,14.879341 0 0 0 -4.490061,10.643104 15.273206,15.273206 0 0 0 30.537657,0 14.879341,14.879341 0 0 0 -4.490057,-10.643104 15.264453,15.264453 0 0 0 -10.774393,-4.437545"
     id="path10"
     inkscape:connector-curvature="0"
     style="fill:#5940c3;stroke-width:0.87525541" />
  <path
     d="m 113.87747,51.429219 a 10.021674,10.021674 0 0 0 -6.87951,2.503231 v -2.153128 h -4.02618 v 22.432795 h 4.02618 V 62.299891 c 0,-2.319427 0.62144,-4.104947 1.85555,-5.251532 a 6.7394662,6.7394662 0 0 1 5.02396,-1.64548 c 3.50102,0 5.32155,2.05685 5.32155,6.126787 v 12.682451 h 4.02617 V 61.459645 c 0,-7.002042 -2.79206,-10.030426 -9.34772,-10.030426"
     id="path12"
     inkscape:connector-curvature="0"
     style="fill:#5940c3;stroke-width:0.87525541" />
  <path
     d="m 138.9798,55.359117 a 7.6322267,7.6322267 0 0 1 7.31712,5.697912 h -14.63427 a 7.5096909,7.5096909 0 0 1 7.31715,-5.697912 m 0,-3.921144 a 11.641015,11.641015 0 1 0 0.10502,23.281792 11.78969,11.78969 0 0 0 10.43304,-6.450632 l 0.23632,-0.472638 h -4.84891 l -0.0963,0.122536 a 7.4571757,7.4571757 0 0 1 -5.8292,2.87959 7.6322267,7.6322267 0 0 1 -7.32589,-5.899221 h 19.04555 V 63.0176 A 11.667154,11.667154 0 0 0 138.9798,51.437973"
     id="path14"
     inkscape:connector-curvature="0"
     style="fill:#5940c3;stroke-width:0.87525541" />
  <path
     d="m 191.56513,71.323773 a 8.6212653,8.6212653 0 0 1 -8.42871,-8.323677 8.4549667,8.4549667 0 0 1 8.42871,-8.218648 8.0260917,8.0260917 0 0 1 8.00859,8.052349 v 0.166299 a 8.1923901,8.1923901 0 0 1 -8.01734,8.323677 m -0.10503,-19.894554 a 11.098237,11.098237 0 0 0 -8.52499,4.04368 v -3.676073 h -3.44851 V 84.2688 h 3.44851 V 70.562301 a 11.045723,11.045723 0 0 0 8.52499,4.113701 11.868463,11.868463 0 0 0 11.73717,-11.675906 11.710917,11.710917 0 0 0 -11.71966,-11.570877"
     id="path16"
     inkscape:connector-curvature="0"
     style="fill:#5940c3;stroke-width:0.87525541" />
  <path
     d="m 216.75498,71.350032 a 8.2011427,8.2011427 0 0 1 -8.02609,-8.332432 8.0523493,8.0523493 0 0 1 7.87731,-8.236152 h 0.16629 a 8.4724718,8.4724718 0 0 1 8.43747,8.236152 8.6300179,8.6300179 0 0 1 -8.43747,8.332432 m 8.63001,-15.877133 a 11.10699,11.10699 0 0 0 -8.54249,-4.017422 11.710917,11.710917 0 0 0 -11.72842,11.588381 11.868463,11.868463 0 0 0 11.72842,11.684659 11.10699,11.10699 0 0 0 8.54249,-4.1137 v 3.658567 h 3.4485 v -22.48531 h -3.4485 z"
     id="path18"
     inkscape:connector-curvature="0"
     style="fill:#5940c3;stroke-width:0.87525541" />
  <path
     d="m 243.15268,51.429219 a 9.7590963,9.7590963 0 0 0 -7.42216,3.063394 v -2.704539 h -3.45726 v 22.415291 h 3.45726 V 62.282386 c 0,-5.041471 2.83582,-7.588464 7.42216,-7.483434 3.77235,0 5.83795,2.188139 5.83795,6.616931 v 12.787482 h 3.50103 V 61.415883 c 0,-7.133331 -2.79207,-9.986664 -9.29522,-9.986664"
     id="path20"
     inkscape:connector-curvature="0"
     style="fill:#5940c3;stroke-width:0.87525541" />
  <path
     d="m 165.67508,57.08337 c -5.07648,-0.971534 -7.15083,-2.345685 -7.15083,-4.735133 0,-2.389446 2.71328,-4.192472 6.44187,-4.192472 3.38724,0 5.89048,1.382904 6.45939,3.501021 h 3.69357 c -0.62144,-4.446298 -4.56883,-7.290877 -10.15296,-7.290877 -6.18805,0 -10.17922,3.115909 -10.17922,7.947318 0,4.542575 3.05464,7.08957 10.23173,8.507482 5.38282,1.059059 7.63224,2.013088 7.63224,5.137749 0,2.905848 -3.15968,4.93644 -7.68475,4.93644 -3.75485,0 -7.00205,-2.039344 -7.63222,-4.682616 h -3.70234 c 0.42013,5.067729 4.93645,8.446214 11.37832,8.446214 7.00205,0 11.37832,-3.334723 11.37832,-8.700038 0,-4.805152 -3.0809,-7.387154 -10.6431,-8.910099"
     id="path22"
     inkscape:connector-curvature="0"
     style="fill:#5940c3;stroke-width:0.87525541" />
  <path
     d="M 53.161002,47.963208 A 23.68441,23.68441 0 1 0 30.710702,79.21858 15.667072,15.667072 0 0 0 45.808857,59.560341 15.632061,15.632061 0 1 1 30.710702,39.893355 a 23.728173,23.728173 0 0 1 23.34306,19.666986 24.839747,24.839747 0 0 1 0.350101,4.026176 v -8.061102 a 24.104533,24.104533 0 0 0 -1.242861,-7.562207 z"
     id="path24"
     inkscape:connector-curvature="0"
     style="fill:#968bff;stroke-width:0.87525541" />
</svg>
