<?xml version="1.0" encoding="UTF-8" standalone="no"?>
<svg
   xmlns:dc="http://purl.org/dc/elements/1.1/"
   xmlns:cc="http://creativecommons.org/ns#"
   xmlns:rdf="http://www.w3.org/1999/02/22-rdf-syntax-ns#"
   xmlns:svg="http://www.w3.org/2000/svg"
   xmlns="http://www.w3.org/2000/svg"
   xmlns:sodipodi="http://sodipodi.sourceforge.net/DTD/sodipodi-0.dtd"
   xmlns:inkscape="http://www.inkscape.org/namespaces/inkscape"
   viewBox="0 0 584.47411 290.8861"
   width="300.86176"
   height="149.54829"
   version="1.1"
   id="svg17"
   sodipodi:docname="Tdt.svg"
   inkscape:version="0.92.4 (5da689c313, 2019-01-14)"
   inkscape:export-filename="C:\Git\infoserv-riga\IsrLp\src\assets\img\distribution\logo\Tdt.png"
   inkscape:export-xdpi="96"
   inkscape:export-ydpi="96">
  <metadata
     id="metadata23">
    <rdf:RDF>
      <cc:Work
         rdf:about="">
        <dc:format>image/svg+xml</dc:format>
        <dc:type
           rdf:resource="http://purl.org/dc/dcmitype/StillImage" />
        <dc:title></dc:title>
      </cc:Work>
    </rdf:RDF>
  </metadata>
  <defs
     id="defs21" />
  <sodipodi:namedview
     pagecolor="#ffffff"
     bordercolor="#666666"
     borderopacity="1"
     objecttolerance="10"
     gridtolerance="10"
     guidetolerance="10"
     inkscape:pageopacity="0"
     inkscape:pageshadow="2"
     inkscape:window-width="1920"
     inkscape:window-height="1027"
     id="namedview19"
     showgrid="false"
     fit-margin-top="10"
     fit-margin-left="10"
     fit-margin-bottom="10"
     fit-margin-right="10"
     inkscape:zoom="0.94666667"
     inkscape:cx="-15.962031"
     inkscape:cy="114.0483"
     inkscape:window-x="1912"
     inkscape:window-y="-8"
     inkscape:window-maximized="1"
     inkscape:current-layer="Vordergrund" />
  <style
     id="style2">
    .st0{fill:#10457a}
  </style>
  <g
     id="Vordergrund"
     transform="translate(19.291978,19.450981)">
    <g
       id="g14"
       transform="scale(2.5350517)">
      <path
         class="st0"
         d="m 2.1,14.6 h 10.2 c 1.2,0 2.1,-1 2.1,-2.1 V 2.2 C 14.4,1 13.4,0.1 12.3,0.1 H 2.1 C 1,0.1 0,1.1 0,2.2 v 10.2 c 0,1.3 1,2.2 2.1,2.2 z M 18.2,92 c 0,4 3.3,7.3 7.3,7.3 4,0 7.3,-3.3 7.3,-7.3 V 16.8 c 0,-1.2 1,-2.1 2.1,-2.1 l 24.8,-0.1 c 1.2,0 2.1,-1 2.1,-2.1 V 3 c 0,-1.6 -1.3,-3 -3,-3 H 21.1 c -1.6,0 -3,1.3 -3,3 V 92 Z M 155.9,14.6 h 10.2 c 1.2,0 2.1,-1 2.1,-2.1 V 2.2 c 0,-1.2 -1,-2.1 -2.1,-2.1 h -10.2 c -1.2,0 -2.1,1 -2.1,2.1 v 10.2 c -0.1,1.3 0.9,2.2 2.1,2.2 z m 16,77.4 c 0,4 3.3,7.3 7.3,7.3 4,0 7.3,-3.3 7.3,-7.3 V 16.8 c 0,-1.2 1,-2.1 2.1,-2.1 l 24.8,-0.1 c 1.2,0 2.1,-1 2.1,-2.1 V 3 c 0,-1.6 -1.3,-3 -3,-3 h -37.7 c -1.6,0 -3,1.3 -3,3 v 89 z"
         id="path6"
         inkscape:connector-curvature="0"
         style="fill:#10457a" />
      <g
         id="g12">
        <path
           class="st0"
           d="m 121.4,7.1 c -3.5,-4.4 -5.9,-7 -17.8,-7 H 78.5 c -1.2,0 -2.1,1 -2.1,2.2 V 79 c 0,1.2 1,2.1 2.1,2.1 h 10.2 c 1.2,0 2.1,-1 2.1,-2.1 V 16.9 c 0,-1.2 1,-2.1 2.1,-2.1 h 8.5 c 8.1,0 7.8,1.3 12.2,7.9 3.5,5.1 14.5,21.2 15.2,22.5 1.6,3 1.4,4.9 -0.2,7.7 -1.1,1.9 -15.3,24 -17,26.5 -2.7,4.2 -3.4,5.5 -15.2,5.5 -1.1,0 -2,1 -2,2.1 v 10.3 c 0,1.2 1,2.1 2.1,2.1 h 11.7 c 4.9,0 9.6,-3.3 11.9,-6.6 3.4,-4.9 20.5,-29.6 22.6,-33.3 4.3,-6.7 4.6,-13.8 1,-19.5 -3.9,-6.9 -19,-28.7 -22.3,-32.9 z"
           id="path8"
           inkscape:connector-curvature="0"
           style="fill:#10457a" />
        <path
           class="st0"
           d="m 78.5,99.2 h 10.2 c 1.2,0 2.1,-1 2.1,-2.1 V 86.8 c 0,-1.2 -1,-2.1 -2.1,-2.1 H 78.5 c -1.2,0 -2.1,1 -2.1,2.1 V 97 c 0,1.2 0.9,2.2 2.1,2.2 z"
           id="path10"
           inkscape:connector-curvature="0"
           style="fill:#10457a" />
      </g>
    </g>
  </g>
</svg>
